<?xml version="1.0" encoding="UTF-8" standalone="no"?>
<!-- Created with Inkscape (http://www.inkscape.org/) -->

<svg
   width="226"
   height="55"
   viewBox="0 0 59.795838 14.552086"
   version="1.1"
   id="svg5"
   xml:space="preserve"
   xmlns="http://www.w3.org/2000/svg"
   xmlns:svg="http://www.w3.org/2000/svg"><defs
     id="defs2" /><path
     style="-inkscape-font-specification:'Magical Neverland';fill:#f0f6fc;fill-opacity:1;stroke-width:0.250542"
     d="m 12.86211,12.369682 c -0.881906,0 -0.871885,1.092362 -0.160347,1.092362 0.370802,0 0.471019,-0.440954 0.220477,-0.641387 0,0 -0.02005,0.280606 -0.210456,0.280606 -0.290628,0 -0.290628,-0.430931 0.130282,-0.430931 0.711538,0 0.501083,1.042252 -0.170367,1.042252 -2.455308,0 2.204766,-7.6365073 -1.322861,-7.6765941 -0.54117,0 -1.012188,0.2304984 -1.342903,0.6614299 v -2.565546 c 0,-0.5311481 0.450975,-0.6313648 0.741604,-0.6313648 V 3.2700108 H 7.7811261 V 3.500509 h 0.230498 c 0.2505416,0 0.8718847,0.1302817 0.8718847,0.7215598 v 6.7145142 c 0,0.410889 -0.1703681,0.591279 -0.581256,0.611322 l -0.4810396,-0.02004 v 0.370802 h 3.0165208 v -0.210456 c -0.631365,-0.04009 -0.831799,-0.06013 -0.831799,-0.881906 V 7.8499117 C 10.046023,7.3788932 10.206369,6.81768 10.857778,6.81768 c 2.1747,0 -1.3128391,7.265706 1.603465,7.265706 1.222644,0 1.463164,-1.713704 0.400867,-1.713704 z m 5.111036,0.190412 c -0.24052,-0.02005 -0.54117,-0.200434 -0.521127,-0.611323 l 0.220477,-3.6579062 v -0.020044 c 0.0902,-1.4631662 -0.340737,-2.6757874 -1.954226,-2.6757874 -0.561212,0 -1.362945,0.2405197 -1.693661,1.6034668 v 0.020043 h 0.04009 l 1.182556,0.3708015 0.04009,-0.2104545 C 14.796278,7.2185468 14.74617,6.8577664 14.836365,6.5370732 14.98669,6.09612 15.297361,5.9658383 15.728293,5.9658383 c 0.861863,0 0.952059,0.9219934 0.871884,2.4152211 l -0.03006,0.5311484 C 16.379702,8.3409723 15.738316,7.9902144 15.056843,7.9902144 c -0.911972,0 -1.894095,0.6313655 -1.894095,2.1947446 0,1.252708 0.711538,2.174701 2.054442,2.174701 0.711537,0 1.052274,-0.24052 1.172534,-0.380823 l -0.03006,0.671451 1.92416,0.100217 0.02004,-0.170369 -0.370801,-0.02004 z m -2.34507,-0.781691 c -1.643552,0 -1.663596,-3.1969108 -0.170368,-3.1969108 0.460997,0 0.791711,0.3006497 0.771669,0.6614301 -0.02004,0.3507585 -0.250542,0.4910613 -0.440955,0.4910613 -0.160346,0 -0.30065,-0.1102381 -0.240519,-0.2806062 0.09019,-0.2705851 0.481039,-0.2204769 0.481039,-0.2204769 -0.100216,-0.2104552 -0.330715,-0.3206927 -0.54117,-0.3206927 -0.25054,0 -0.481039,0.1403035 -0.491061,0.4409526 -0.03006,0.4309314 0.220477,0.7416036 0.701516,0.7716686 0.320694,0.02005 0.661431,-0.110238 0.831799,-0.4108882 l -0.110238,1.8339642 c -0.110239,0.09019 -0.330716,0.230498 -0.791712,0.230498 z m 5.56199,-7.0953376 c -0.551192,0 -1.012188,0.2806066 -1.27275,0.7516248 V 4.8033253 l -2.134615,0.12026 v 0.210455 l 0.210454,-0.010021 c 0.250542,0 0.891929,0.1503249 0.891929,0.741603 v 3.7481029 c 0,0.3808233 -0.200433,0.4810398 -0.561214,0.5010838 l -0.410888,-0.02004 v 0.380823 l 2.806066,-0.01002 v -0.21046 C 20.24803,10.225049 19.917316,9.964483 19.917316,9.4333352 V 6.7375065 c 0,-0.6614298 0.170367,-1.4932279 0.992143,-1.4932279 1.182557,0 1.062297,1.954224 0.430932,1.954224 -0.320693,0 -0.350758,-0.3106709 -0.200433,-0.4108879 0.03006,-0.020044 0.07015,-0.030064 0.100217,-0.030064 0.110239,0 0.210455,0.1002167 0.210455,0.1002167 0.04009,-0.2004333 -0.12026,-0.3808232 -0.330715,-0.3808232 -0.671451,0 -0.641387,1.1224264 0.190411,1.1224264 2.064463,0 1.86403,-2.9163042 -0.12026,-2.9163052 z m 2.775981,2.3951779 v 3.3773007 c 0,0.440954 -0.260563,0.521126 -0.741603,0.521126 l -0.320693,-0.03006 v 0.380824 l 3.236998,0.110238 v -0.220476 l -0.471019,-0.04009 c -0.561214,-0.06013 -0.671452,-0.370802 -0.671452,-0.891927 V 6.7976364 c 0,-0.4108882 0.290629,-0.5612133 0.631366,-0.6012998 l 0.471018,-0.030065 V 5.945795 l -3.236998,0.1803899 v 0.2204767 l 0.220477,-0.010021 c 0.250542,0 0.881906,0.1503248 0.881906,0.7416027 z m 3.417381,-0.5812568 c 0,-0.4209098 0.24052,-0.7315814 0.741604,-0.7315814 0.320692,0 0.611321,0.1403032 0.73158,0.6213431 0.07015,0.3106716 -0.01002,0.6413863 -0.471018,0.7816897 l 0.04009,0.2104553 1.232665,-0.3607804 c 0,0 0,-1.6235094 -1.613488,-1.6235094 -0.681473,0 -1.723726,0.3507584 -1.723726,1.6335311 0,1.6535747 2.054441,2.1646795 2.054441,3.5476685 0,0.521127 -0.260563,0.881907 -0.84182,0.881907 -0.491061,-0.01002 -0.801733,-0.350758 -0.801733,-0.731582 0,-0.380822 0.230499,-0.521125 0.410888,-0.521125 0.110238,0 0.190411,0.0501 0.190411,0.140303 -0.01002,0.180389 -0.240519,0.210454 -0.240519,0.210454 0.06013,0.07015 0.140303,0.100217 0.220476,0.100217 0.180391,0 0.350759,-0.140303 0.350759,-0.400867 0,-0.2906277 -0.24052,-0.4509746 -0.521127,-0.4509746 -0.370801,0 -0.801733,0.2906286 -0.801733,0.9620806 0,0.952058 0.791711,1.393011 1.553358,1.38299 1.02221,0 1.803899,-0.661431 1.803899,-1.773836 0,-1.8840724 -2.315004,-2.585589 -2.315004,-3.8783835 z m 9.821217,4.0487525 V 8.7318173 c 0,-1.8239427 -0.821777,-2.525459 -1.543337,-2.525459 C 35.019922,6.1963368 34.619055,6.5571165 34.438666,7.108308 34.188124,6.27651 33.616889,5.9057083 33.045654,5.9057083 c -0.501083,0 -0.871885,0.2304982 -1.092361,0.6514082 V 6.0259683 L 29.8287,6.1261849 v 0.2204767 l 0.380823,-0.020043 -0.160347,0.020043 c 0.260563,0 0.881907,0.1403032 0.881907,0.7315817 v 3.8282757 c 0,0.410888 -0.24052,0.511104 -0.631365,0.521126 l -0.430931,-0.03006 v 0.380824 l 2.615654,-0.01002 v -0.220477 c -0.460996,-0.02004 -0.531148,-0.280607 -0.531148,-0.811755 V 7.6695204 c 0,-0.651409 0.270584,-1.2827736 0.78169,-1.2126219 0.591278,0.080173 0.661428,1.0021668 0.581256,1.9542249 l -0.100217,1.1324479 c -0.08018,0.4108878 -0.450975,0.5511917 -0.671451,0.5411687 h -0.09019 l -0.01002,0.230499 2.565546,0.09019 0.01002,-0.230499 C 34.649119,10.164911 34.458708,9.9745028 34.488773,9.4333332 v -0.010025 l 0.08018,-0.8618629 v -0.250541 c 0.01002,-0.010026 0.01002,-0.020043 0.01002,-0.030062 0.0501,-0.6514083 0.180391,-1.5032493 0.711538,-1.5032493 0.571235,0 0.651408,0.9620792 0.661431,1.9241597 v 0.050113 c 0.02004,0.5912778 0.02004,1.3028173 0.01002,1.8339643 0,0.450975 -0.160346,0.561214 -0.561213,0.551192 l -0.130282,-0.01002 v 0.380822 l 2.625677,-0.01003 v -0.31067 H 37.635582 C 37.38504,11.1771 37.214672,11.006738 37.204651,10.545741 Z m 5.682282,2.014355 c -0.240519,-0.02005 -0.541169,-0.200434 -0.521126,-0.611323 l 0.220476,-3.6579062 v -0.020044 c 0.0902,-1.4631662 -0.340737,-2.6757874 -1.954224,-2.6757874 -0.561214,0 -1.362946,0.2405197 -1.693661,1.6034668 v 0.020043 h 0.04009 l 1.182556,0.3708015 0.04009,-0.2104545 c -0.491066,-0.1603443 -0.541175,-0.5211247 -0.45098,-0.8418179 0.150326,-0.4409532 0.460997,-0.5712349 0.891929,-0.5712349 0.861863,0 0.952057,0.9219934 0.871884,2.4152211 l -0.03006,0.5311493 C 41.293485,8.3409723 40.652099,7.9902144 39.970626,7.9902144 c -0.911972,0 -1.894095,0.6313655 -1.894095,2.1947446 0,1.252708 0.711539,2.174701 2.054442,2.174701 0.711537,0 1.052273,-0.24052 1.172532,-0.380823 l -0.03006,0.671451 1.92416,0.100217 0.02004,-0.170369 -0.370802,-0.02004 z m -2.345069,-0.781691 c -1.643553,0 -1.663596,-3.1969108 -0.170369,-3.1969108 0.460997,0 0.791711,0.3006497 0.771668,0.6614301 -0.02004,0.3507585 -0.25054,0.4910613 -0.440952,0.4910613 -0.160347,0 -0.30065,-0.1102381 -0.240521,-0.2806062 0.0902,-0.2705851 0.481041,-0.2204769 0.481041,-0.2204769 -0.100217,-0.2104552 -0.330716,-0.3206927 -0.54117,-0.3206927 -0.250542,0 -0.481041,0.1403035 -0.491063,0.4409526 -0.03006,0.4309314 0.220478,0.7416036 0.701517,0.7716686 0.320694,0.02005 0.66143,-0.110238 0.831799,-0.4108882 l -0.110239,1.8339642 c -0.110239,0.09019 -0.330716,0.230498 -0.791711,0.230498 z"
     id="text1"
     aria-label="Charisma" /><path
     style="fill:#f0f6fc;fill-opacity:1;stroke:none;stroke-width:0.187358px;stroke-linecap:butt;stroke-linejoin:miter;stroke-opacity:1"
     d="m 48.252304,8.5200568 c -0.225578,2.6317542 -0.52635,4.9597312 -0.52635,4.9597312 0,0 1.170637,1.072671 3.472135,1.041413 2.301496,-0.03126 3.822612,-0.894027 3.822612,-0.894027 0,0 -0.370658,-2.16796 -0.470915,-4.3986851 0,0 -0.313997,0.3370609 -3.014997,0.3606116 -2.700998,0.023549 -3.282485,-1.0690437 -3.282485,-1.0690437 z"
     id="path2" /><path
     id="path3"
     style="fill:#f0f6fc;fill-opacity:1;stroke:none;stroke-width:1.70823"
     d="m 54.750801,0.17891635 c -0.300833,-0.0144617 -0.680821,0.0888448 -1.16141,0.37671213 -0.91349,0.51345592 -1.579224,3.41837102 -1.920521,5.28605302 -0.04029,-0.00303 -0.07923,-0.00645 -0.120121,-0.00924 -0.178102,-0.013535 -0.350592,-0.023398 -0.52029,-0.031625 -0.423457,-1.7003882 -1.132501,-4.1837129 -1.784407,-4.7121 0,0 -2.017112,-1.84730428 -2.16574,0.8916704 -0.06917,0.9671798 0.833282,2.5589997 1.704445,3.8534808 -1.644971,0.1658797 -2.606066,0.6753575 -2.623124,1.4901457 6.9e-5,1.0249064 3.219721,1.5412498 6.066131,1.3657589 2.57054,-0.2255964 4.385785,-0.6919616 4.385853,-1.3909912 -4.9e-5,-0.3084549 -0.941918,-0.8251991 -2.726543,-1.1706514 0.920744,-1.4670397 2.029255,-3.4295203 2.00155,-4.3449835 0,0 -0.06141,-1.55257636 -1.135823,-1.60422495 z m -0.200439,0.79216158 c 0.596223,0.0308628 0.59954,1.20583417 0.59954,1.20583417 -0.02314,0.7407004 -1.044977,2.5663101 -1.854774,3.8474392 -0.03634,0.057497 -0.06961,0.1089573 -0.104838,0.1641896 -0.111685,0.1749043 -0.216726,0.336785 -0.312387,0.4826179 -0.122368,0.1864972 -0.227203,0.3439252 -0.309545,0.4662705 -0.01052,0.015648 -0.02972,0.045307 -0.03945,0.059708 -0.0038,0.00558 -0.01091,0.01628 -0.01457,0.021677 -0.07845,0.1159272 -0.135759,0.1990177 -0.135759,0.1990177 l -0.434996,0.00853 c 0,0 0.01531,-0.085614 0.0423,-0.2302918 0.0043,-0.022895 0.01072,-0.054277 0.01564,-0.080318 0.02649,-0.1403796 0.06017,-0.3169072 0.103773,-0.533794 0.294535,-1.4640657 0.850917,-4.2822526 1.667129,-5.209289 0.360064,-0.37786169 0.534683,-0.38776797 0.71824,-0.40087856 0.02049,-0.001463 0.04048,-0.001708 0.05971,-7.0782e-4 z M 48.457576,1.5830575 c 0.222821,0.009 0.431798,0.1609911 0.431798,0.1609911 0.602513,0.2824906 1.283372,2.4766536 1.732165,4.0400599 0.01945,0.067751 0.03609,0.1285931 0.05473,0.1943976 0.05832,0.206748 0.110635,0.3971243 0.158148,0.5739529 0.07268,0.2704556 0.135636,0.5111353 0.178049,0.6780819 4.43e-4,0.0017 0.0013,0.00538 0.0018,0.00712 1.87e-4,7.487e-4 5.46e-4,0.00211 6.8e-4,0.00279 0.0454,0.1789164 0.07108,0.2853779 0.07108,0.2853779 l -0.45241,0.010311 c 0,0 -0.08454,-0.1063465 -0.177339,-0.2253166 -0.03133,-0.040176 -0.07151,-0.093152 -0.110172,-0.1435772 -0.128222,-0.1678233 -0.285324,-0.3773707 -0.46698,-0.631526 -0.0021,-0.003 -0.0039,-0.00518 -0.0061,-0.00818 C 49.832607,6.4708921 49.792499,6.4137915 49.750448,6.3537711 49.62699,6.1775693 49.498216,5.9885201 49.367694,5.7894137 H 49.36734 C 48.684569,4.7477482 47.882444,3.4693906 47.8392,2.5479381 c 0.0054,-0.786628 0.365846,-0.97507 0.618376,-0.9648806 z m 2.915966,4.7106786 c 0.07252,0 0.143184,0.00225 0.214654,0.00355 -0.0118,0.068984 -0.03194,0.1656673 -0.04371,0.2334905 l -0.05793,0.5979017 H 51.238855 L 51.178798,6.505542 h 0.0036 c -0.01132,-0.061964 -0.01976,-0.1532689 -0.03305,-0.2089686 0.07523,-7.759e-4 0.147143,-0.00284 0.224249,-0.00284 z m -2.187774,0.1236752 c 0.03013,0.042408 0.07077,0.097199 0.108038,0.1478417 l 0.668842,0.698339 c 0,0 -0.528975,0.088561 -0.838007,0.5458772 1.567607,0.1536596 3.135388,0.1101504 4.699306,-0.071433 C 53.508912,7.2742107 52.969592,7.2500876 52.969592,7.2500876 l 0.581772,-0.6229969 c 0.0022,4.242e-4 0.0042,9.994e-4 0.0064,0.00142 0.02933,-0.039189 0.0587,-0.077972 0.08281,-0.1155014 1.042568,0.2109629 1.727826,0.5339303 1.743182,0.7832767 -6.8e-4,0.5535796 -0.843633,0.8267864 -3.98533,0.9019765 -0.07352,0.00177 -0.146357,-4.492e-4 -0.218919,-0.00143 C 49.067096,8.1683936 47.21363,8.082269 47.363335,7.371623 47.488469,6.8534123 48.160425,6.5629758 49.185769,6.4174045 Z" /><path
     style="fill:#f0f6fc;fill-opacity:1;stroke:none;stroke-width:0.171573px;stroke-linecap:butt;stroke-linejoin:miter;stroke-opacity:1"
     d="M 57.642976,0.83860399 C 57.482812,1.599381 56.842158,1.7795655 56.842158,1.7795655 c 0,0 0.600614,0.2602652 0.800818,1.0610837 0.08008,-0.8408589 0.766837,-1.0055796 0.766837,-1.0055796 0,0 -0.626694,-0.175622 -0.766837,-0.99646561 z"
     id="path4" /><path
     style="fill:#f0f6fc;fill-opacity:1;stroke:none;stroke-width:0.116982px;stroke-linecap:butt;stroke-linejoin:miter;stroke-opacity:1"
     d="m 58.587507,2.9458545 c -0.109202,0.5187111 -0.546011,0.5778668 -0.546011,0.5778668 0,0 0.398893,0.1349893 0.482314,0.7553147 0.107679,-0.5733133 0.53539,-0.6658377 0.53539,-0.6658377 0,0 -0.37614,-0.107681 -0.471693,-0.6673438 z"
     id="path4-3" /><path
     style="fill:none;stroke:#f0f6fc;stroke-width:0.193085px;stroke-linecap:round;stroke-linejoin:round;stroke-opacity:1"
     d="m 56.636557,3.9862464 -0.405552,0.1351842 0.428083,0.9237588 0.337959,-0.1577149 z"
     id="path8" /><path
     style="fill:none;stroke:#f0f6fc;stroke-width:0.193085px;stroke-linecap:round;stroke-linejoin:round;stroke-opacity:1"
     d="m 59.282578,11.218478 0.405551,-0.135184 -0.428081,-0.923759 -0.337961,0.157715 z"
     id="path8-2" /><path
     style="fill:#f0f6fc;fill-opacity:1;stroke:none;stroke-width:0.193085px;stroke-linecap:butt;stroke-linejoin:miter;stroke-opacity:1"
     d="m 56.692884,5.0789855 2.219275,5.1595305 0.304164,-0.101388 -2.185478,-5.2271228 z"
     id="path9" /><path
     style="fill:#f0f6fc;fill-opacity:1;stroke:none;stroke-width:0.336801px;stroke-linecap:butt;stroke-linejoin:miter;stroke-opacity:1"
     d="m 24.402109,1.9863266 c -0.314404,1.4934191 -1.57202,1.8471243 -1.57202,1.8471243 0,0 1.179015,0.5109053 1.57202,2.0829263 0.157192,-1.650621 1.505313,-1.9739706 1.505313,-1.9739706 0,0 -1.230211,-0.3447494 -1.505313,-1.95608 z"
     id="path4-5" /><path
     d="M 5.149125,9.0737962 5.2739524,9.401469 C 5.414383,9.354665 5.5392104,9.339058 5.6484342,9.339058 c 0.4993091,0 0.7489636,0.3588788 0.8581877,0.795775 0.2808621,1.263876 -0.6241366,2.122064 -1.5447377,2.122064 -1.3731,0.09363 -2.9490445,-1.966031 -2.9490445,-5.2427464 0,-3.0270613 1.0766354,-4.7278329 2.6681832,-4.7278329 1.8724092,0 2.3717188,2.5277523 1.0610318,2.9490444 C 4.8994705,5.500616 4.6810229,4.4083773 5.1959353,4.4239808 5.601624,4.4551875 5.679641,4.9701001 5.679641,4.9701001 6.1789502,4.5332045 5.866882,3.518983 5.1335217,3.6906205 4.5717989,3.8310512 4.2909376,4.3927739 4.4469718,5.0013068 4.6186092,5.7502705 5.1335217,5.9687182 5.7420547,5.8907011 7.5520512,5.65665 7.6924819,1.7245909 4.4781785,1.7245909 1.5447377,1.7245909 0,4.2991535 0,7.7319031 c 0.2808614,3.8228349 2.6057693,5.3831759 4.3221445,5.2583489 1.6227544,0 3.8228363,-1.263876 2.7618038,-4.4157646 z"
     style="-inkscape-font-specification:'Magical Neverland';fill:#f0f6fc;fill-opacity:1;stroke-width:0.390085"
     id="path1" /></svg>
